<svg xmlns="http://www.w3.org/2000/svg" width="721.69" height="215.29" viewBox="0 0 721.69 215.29">
  <defs>
    <style>
      .cls-1 {
        fill: #a7ff83;
      }
    </style>
  </defs>
  <path id="Path_4" data-name="Path 4" class="cls-1" d="M262.54,0h-1.61V3.44h-3.44V5.05h3.44V8.49h1.61V5.05H266V3.44h-3.44Zm277.3,0h-1.62V3.44h-3.43V5.05h3.43V8.49h1.62V5.05h3.44V3.44h-3.44ZM658.68,0h-1.61V3.44h-3.44V5.05h3.44V8.49h1.61V5.05h3.44V3.44h-3.44ZM282.35,0h-1.62V3.44H277.3V5.05h3.43V8.49h1.62V5.05h3.44V3.44h-3.44ZM242.74,0h-1.62V3.44h-3.44V5.05h3.44V8.49h1.62V5.05h3.43V3.44h-3.43ZM64.47,0H62.86V3.44H59.42V5.05h3.44V8.49h1.61V5.05h3.44V3.44H64.47ZM520,0h-1.61V3.44H515V5.05h3.44V8.49H520V5.05h3.44V3.44H520Zm99,0h-1.62V3.44H614V5.05h3.43V8.49h1.62V5.05h3.44V3.44h-3.44Zm59.42,0H676.8V3.44h-3.43V5.05h3.43V8.49h1.62V5.05h3.44V3.44h-3.44ZM302.16,0h-1.62V3.44H297.1V5.05h3.44V8.49h1.62V5.05h3.43V3.44h-3.43Zm-99,0h-1.61V3.44h-3.44V5.05h3.44V8.49h1.61V5.05h3.44V3.44h-3.44ZM123.89,0h-1.61V3.44h-3.44V5.05h3.44V8.49h1.61V5.05h3.44V3.44h-3.44ZM599.26,0h-1.61V3.44h-3.44V5.05h3.44V8.49h1.61V5.05h3.44V3.44h-3.44ZM163.51,0h-1.62V3.44h-3.43V5.05h3.43V8.49h1.62V5.05h3.43V3.44h-3.43ZM143.7,0h-1.62V3.44h-3.43V5.05h3.43V8.49h1.62V5.05h3.44V3.44H143.7Zm39.62,0H181.7V3.44h-3.44V5.05h3.44V8.49h1.62V5.05h3.43V3.44h-3.43Zm39.61,0h-1.62V3.44h-3.43V5.05h3.43V8.49h1.62V5.05h3.44V3.44h-3.44Zm99,0h-1.61V3.44h-3.44V5.05h3.44V8.49H322V5.05h3.44V3.44H322ZM104.09,0h-1.62V3.44H99V5.05h3.44V8.49h1.62V5.05h3.43V3.44h-3.43ZM559.65,0H558V3.44h-3.4V5.05H558V8.49h1.62V5.05h3.43V3.44h-3.43Zm19.81,0h-1.62V3.44H574.4V5.05h3.44V8.49h1.62V5.05h3.43V3.44h-3.43Zm59.42,0h-1.62V3.44h-3.44V5.05h3.44V8.49h1.62V5.05h3.43V3.44h-3.43ZM84.28,0H82.66V3.44H79.23V5.05h3.43V8.49h1.62V5.05h3.44V3.44H84.28Zm277.3,0H360V3.44h-3.43V5.05H360V8.49h1.62V5.05H365V3.44h-3.43Zm99,0H459V3.44h-3.44V5.05H459V8.49h1.61V5.05h3.44V3.44h-3.44Zm19.81,0H478.8V3.44h-3.43V5.05h3.43V8.49h1.62V5.05h3.44V3.44h-3.44ZM5.05,0H3.44V3.44H0V5.05H3.44V8.49H5.05V5.05H8.49V3.44H5.05ZM698.3,0h-1.62V3.44h-3.44V5.05h3.44V8.49h1.62V5.05h3.43V3.44H698.3ZM381.39,0h-1.62V3.44h-3.44V5.05h3.44V8.49h1.62V5.05h3.43V3.44h-3.43Zm19.8,0h-1.61V3.44h-3.44V5.05h3.44V8.49h1.61V5.05h3.44V3.44h-3.44ZM44.67,0H43.05V3.44H39.61V5.05h3.44V8.49h1.62V5.05H48.1V3.44H44.67ZM440.81,0h-1.62V3.44h-3.44V5.05h3.44V8.49h1.62V5.05h3.43V3.44h-3.43ZM421,0h-1.62V3.44H416V5.05h3.43V8.49H421V5.05h3.44V3.44H421ZM718.1,3.44V0h-1.61V3.44h-3.44V5.05h3.44V8.49h1.61V5.05h3.44V3.44ZM24.86,0H23.24V3.44H19.81V5.05h3.43V8.49h1.62V5.05H28.3V3.44H24.86ZM341.77,0h-1.62V3.44h-3.43V5.05h3.43V8.49h1.62V5.05h3.44V3.44h-3.44ZM500.23,0h-1.62V3.44h-3.44V5.05h3.44V8.49h1.62V5.05h3.43V3.44h-3.43Zm99,18.8h-1.61v3.43h-3.44v1.62h3.44v3.44h1.61V23.85h3.44V22.23h-3.44Zm-415.94,0H181.7v3.43h-3.44v1.62h3.44v3.44h1.62V23.85h3.43V22.23h-3.43Zm316.91,0h-1.62v3.43h-3.44v1.62h3.44v3.44h1.62V23.85h3.43V22.23H500.2Zm19.8,0h-1.61v3.43H515v1.62h3.44v3.44H520V23.85h3.44V22.23H520Zm-257.49,0H260.9v3.43h-3.44v1.62h3.44v3.44h1.61V23.85H266V22.23h-3.44Zm-59.42,0h-1.61v3.43h-3.44v1.62h3.44v3.44h1.61V23.85h3.44V22.23h-3.44Zm336.72,0h-1.62v3.43h-3.43v1.62h3.43v3.44h1.62V23.85h3.44V22.23h-3.44Zm79.23,0h-1.62v3.43H614v1.62h3.43v3.44h1.62V23.85h3.44V22.23h-3.44ZM322,18.8h-1.61v3.43h-3.44v1.62h3.44v3.44H322V23.85h3.44V22.23H322Zm-158.45,0h-1.62v3.43H158.5v1.62h3.43v3.44h1.62V23.85h3.43V22.23h-3.43Zm277.3,0h-1.62v3.43h-3.44v1.62h3.44v3.44h1.62V23.85h3.43V22.23h-3.43ZM421,18.8h-1.62v3.43H416v1.62h3.43v3.44H421V23.85h3.44V22.23H421Zm-39.61,0h-1.62v3.43h-3.44v1.62h3.44v3.44h1.62V23.85h3.43V22.23h-3.43Zm-138.65,0h-1.62v3.43h-3.44v1.62h3.44v3.44h1.62V23.85h3.43V22.23h-3.43Zm59.42,0h-1.62v3.43H297.1v1.62h3.44v3.44h1.62V23.85h3.43V22.23h-3.43Zm178.26,0H478.8v3.43h-3.43v1.62h3.43v3.44h1.62V23.85h3.44V22.23h-3.44Zm-79.23,0h-1.61v3.43h-3.44v1.62h3.44v3.44h1.61V23.85h3.44V22.23h-3.44Zm158.46,0H558v3.43h-3.4v1.62H558v3.44h1.62V23.85h3.43V22.23h-3.43Zm19.81,0h-1.62v3.43H574.4v1.62h3.44v3.44h1.62V23.85h3.43V22.23h-3.43Zm-118.85,0H459v3.43h-3.44v1.62H459v3.44h1.61V23.85h3.44V22.23h-3.44Zm-99,0H360v3.43h-3.43v1.62H360v3.44h1.62V23.85H365V22.23h-3.43Zm-19.81,0h-1.62v3.43h-3.43v1.62h3.43v3.44h1.62V23.85h3.44V22.23H341.8Zm-118.84,0h-1.62v3.43h-3.43v1.62h3.43v3.44h1.62V23.85h3.44V22.23h-3.44Zm59.42,0h-1.62v3.43H277.3v1.62h3.43v3.44h1.62V23.85h3.44V22.23h-3.44Zm-198.07,0H82.66v3.43H79.23v1.62h3.43v3.44h1.62V23.85h3.44V22.23H84.28Zm-19.81,0H62.86v3.43H59.42v1.62h3.44v3.44h1.61V23.85h3.44V22.23H64.47Zm594.21,0H657.1v3.43h-3.44v1.62h3.44v3.44h1.61V23.85h3.44V22.23h-3.44Zm-19.8,0h-1.62v3.43h-3.44v1.62h3.44v3.44h1.62V23.85h3.43V22.23h-3.43Zm39.61,0H676.9v3.43h-3.43v1.62h3.43v3.44h1.62V23.85h3.44V22.23h-3.44Zm-574.4,0H102.5v3.43H99v1.62h3.44v3.44h1.62V23.85h3.43V22.23h-3.43Zm39.61,0h-1.62v3.43h-3.43v1.62h3.43v3.44h1.62V23.85h3.44V22.23H143.7Zm-99,0H43.05v3.43H39.61v1.62h3.44v3.44h1.62V23.85H48.1V22.23H44.67Zm673.43,0h-1.61v3.43h-3.44v1.62h3.44v3.44h1.61V23.85h3.44V22.23h-3.5Zm-594.21,0h-1.61v3.43H118.9v1.62h3.44v3.44h1.61V23.85h3.44V22.23h-3.44Zm-99,0H23.24v3.43H19.81v1.62h3.43v3.44h1.62V23.85H28.3V22.23H24.86Zm673.44,0h-1.62v3.43h-3.44v1.62h3.44v3.44h1.62V23.85h3.43V22.23H698.3ZM5.05,18.8H3.44v3.43H0v1.62H3.44v3.44H5.05V23.85H8.49V22.23H5.05ZM163.51,37.59h-1.62V41h-3.43v1.62h3.43v3.43h1.62v-3.4h3.43V41h-3.43Zm-138.65,0H23.24V41H19.81v1.62h3.43v3.43h1.62v-3.4H28.3V41H24.86Zm633.82,0h-1.61V41h-3.44v1.62h3.44v3.43h1.61v-3.4h3.44V41h-3.44Zm-158.45,0h-1.62V41h-3.44v1.62h3.44v3.43h1.62v-3.4h3.43V41h-3.43Zm-118.84,0h-1.62V41h-3.44v1.62h3.44v3.43h1.62v-3.4h3.43V41h-3.43Zm19.8,0h-1.61V41h-3.44v1.62h3.44v3.43h1.61v-3.4h3.44V41h-3.44Zm-158.45,0h-1.62V41h-3.44v1.62h3.44v3.43h1.62v-3.4h3.43V41h-3.43Zm-178.27,0H62.86V41H59.42v1.62h3.44v3.43h1.61v-3.4h3.44V41H64.47Zm-19.8,0H43.05V41H39.61v1.62h3.44v3.43h1.62v-3.4H48.1V41H44.67Zm515,0H558V41h-3.4v1.62H558v3.43h1.62v-3.4h3.43V41h-3.43Zm-19.81,0h-1.62V41h-3.43v1.62h3.43v3.43h1.62v-3.4h3.44V41h-3.44Zm-277.3,0h-1.61V41h-3.44v1.62h3.44v3.43h1.61v-3.4H266V41h-3.44Zm59.42,0h-1.61V41h-3.44v1.62h3.44v3.43H322v-3.4h3.44V41H322Zm-39.61,0h-1.62V41H277.3v1.62h3.43v3.43h1.62v-3.4h3.44V41h-3.44Zm59.42,0h-1.62V41h-3.43v1.62h3.43v3.43h1.62v-3.4h3.44V41h-3.44Zm-39.61,0h-1.62V41H297.1v1.62h3.44v3.43h1.62v-3.4h3.43V41h-3.43Zm178.26,0H478.8V41h-3.43v1.62h3.43v3.43h1.62v-3.4h3.44V41h-3.44Zm217.88,0H696.7V41h-3.44v1.62h3.44v3.43h1.62v-3.4h3.43V41H698.3Zm-614,0H82.66V41H79.23v1.62h3.43v3.43h1.62v-3.4h3.44V41H84.28Zm277.3,0H360V41h-3.43v1.62H360v3.43h1.62v-3.4H365V41h-3.43Zm277.3,0H637.3V41h-3.44v1.62h3.44v3.43h1.62v-3.4h3.43V41h-3.43Zm-178.27,0H459V41h-3.44v1.62H459v3.43h1.61v-3.4h3.44V41h-3.44Zm-257.49,0h-1.61V41h-3.44v1.62h3.44v3.43h1.61v-3.4h3.44V41h-3.44Zm-59.42,0h-1.62V41h-3.43v1.62h3.43v3.43h1.62v-3.4h3.44V41H143.7Zm-19.81,0h-1.61V41h-3.44v1.62h3.44v3.43h1.61v-3.4h3.44V41h-3.44Zm475.37,0h-1.61V41h-3.44v1.62h3.44v3.43h1.61v-3.4h3.44V41H599.3Zm-178.3,0h-1.62V41H416v1.62h3.43v3.43H421v-3.4h3.44V41H421Zm198.07,0h-1.62V41H614v1.62h3.43v3.43h1.62v-3.4h3.44V41h-3.44Zm-178.26,0h-1.62V41h-3.44v1.62h3.44v3.43h1.62v-3.4h3.43V41h-3.43Zm277.29,0h-1.61V41h-3.44v1.62h3.44v3.43h1.61v-3.4h3.44V41H718.1Zm-713.05,0H3.44V41H0v1.62H3.44v3.43H5.05v-3.4H8.49V41H5.05Zm515,0h-1.61V41H515v1.62h3.44v3.43H520v-3.4h3.44V41H520Zm-297.1,0h-1.62V41H217.9v1.62h3.43v3.43h1.62v-3.4h3.44V41h-3.44Zm455.56,0h-1.62V41h-3.43v1.62h3.43v3.43h1.62v-3.4h3.44V41h-3.44Zm-574.4,0h-1.62V41H99v1.62h3.44v3.43h1.62v-3.4h3.43V41h-3.43Zm79.23,0H181.7V41h-3.44v1.62h3.44v3.43h1.62v-3.4h3.43V41h-3.43Zm396.14,0h-1.62V41H574.4v1.62h3.44v3.43h1.62v-3.4h3.43V41h-3.43ZM341.77,56.39h-1.62v3.44h-3.43v1.61h3.43v3.44h1.62V61.44h3.44V59.83h-3.44Zm158.46,0h-1.62v3.44h-3.44v1.61h3.44v3.44h1.62V61.44h3.43V59.83h-3.43Zm-455.56,0H43.05v3.44H39.61v1.61h3.44v3.44h1.62V61.44H48.1V59.83H44.67Zm415.94,0H459v3.44h-3.44v1.61H459v3.44h1.61V61.44h3.44V59.83h-3.44Zm-455.56,0H3.44v3.44H0v1.61H3.44v3.44H5.05V61.44H8.49V59.83H5.05Zm396.14,0h-1.61v3.44h-3.44v1.61h3.44v3.44h1.61V61.44h3.44V59.83h-3.44Zm217.88,0h-1.62v3.44H614v1.61h3.43v3.44h1.62V61.44h3.44V59.83h-3.44ZM421,56.39h-1.62v3.44H416v1.61h3.43v3.44H421V61.44h3.44V59.83H421Zm297.1,0h-1.61v3.44h-3.44v1.61h3.44v3.44h1.61V61.44h3.44V59.83H718.1Zm-336.71,0h-1.62v3.44h-3.44v1.61h3.44v3.44h1.62V61.44h3.43V59.83h-3.43Zm-356.53,0H23.24v3.44H19.81v1.61h3.43v3.44h1.62V61.44H28.3V59.83H24.86Zm673.44,0h-1.62v3.44h-3.44v1.61h3.44v3.44h1.62V61.44h3.43V59.83H698.3Zm-534.79,0h-1.62v3.44h-3.43v1.61h3.43v3.44h1.62V61.44h3.43V59.83h-3.43Zm316.91,0H478.8v3.44h-3.43v1.61h3.43v3.44h1.62V61.44h3.44V59.83h-3.44Zm-118.84,0H360v3.44h-3.43v1.61H360v3.44h1.62V61.44H365V59.83h-3.43Zm237.68,0h-1.61v3.44h-3.44v1.61h3.44v3.44h1.61V61.44h3.44V59.83h-3.44Zm-475.37,0h-1.61v3.44h-3.44v1.61h3.44v3.44h1.61V61.44h3.44V59.83h-3.44Zm158.46,0h-1.62v3.44H277.3v1.61h3.43v3.44h1.62V61.44h3.44V59.83h-3.44Zm-99,0H181.7v3.44h-3.44v1.61h3.44v3.44h1.62V61.44h3.43V59.83h-3.43Zm-99,0H82.66v3.44H79.23v1.61h3.43v3.44h1.62V61.44h3.44V59.83H84.28Zm455.56,0h-1.62v3.44h-3.43v1.61h3.43v3.44h1.62V61.44h3.44V59.83h-3.44Zm-277.3,0H261v3.44h-3.44v1.61H261v3.44h1.61V61.44H266V59.83h-3.44Zm316.92,0h-1.62v3.44H574.4v1.61h3.44v3.44h1.62V61.44h3.43V59.83h-3.43Zm-475.37,0h-1.62v3.44H99v1.61h3.44v3.44h1.62V61.44h3.43V59.83h-3.43Zm118.84,0h-1.62v3.44h-3.43v1.61h3.43v3.44H223V61.44h3.44V59.83H223Zm19.81,0h-1.62v3.44h-3.44v1.61h3.44v3.44h1.62V61.44h3.43V59.83h-3.43Zm316.91,0H558v3.44h-3.4v1.61H558v3.44h1.62V61.44h3.43V59.83h-3.43Zm99,0h-1.61v3.44h-3.44v1.61h3.44v3.44h1.61V61.44h3.44V59.83h-3.44Zm-217.87,0h-1.62v3.44h-3.44v1.61h3.44v3.44h1.62V61.44h3.43V59.83h-3.43Zm-376.34,0H62.86v3.44H59.42v1.61h3.44v3.44h1.61V61.44h3.44V59.83H64.47Zm614,0h-1.62v3.44h-3.43v1.61h3.43v3.44h1.62V61.44h3.44V59.83h-3.44Zm-534.79,0H142.1v3.44h-3.43v1.61h3.43v3.44h1.62V61.44h3.44V59.83H143.7Zm178.26,0h-1.61v3.44h-3.44v1.61h3.44v3.44H322V61.44h3.44V59.83H322Zm316.92,0h-1.62v3.44h-3.44v1.61h3.44v3.44h1.62V61.44h3.43V59.83H638.9Zm-118.9,0h-1.61v3.44H515v1.61h3.44v3.44H520V61.44h3.44V59.83H520Zm-217.87,0h-1.62v3.44H297.1v1.61h3.44v3.44h1.62V61.44h3.43V59.83h-3.43Zm-99,0h-1.61v3.44h-3.44v1.61h3.44v3.44h1.61V61.44h3.44V59.83h-3.44Zm0,18.8h-1.61v3.43h-3.44v1.62h3.44v3.43h1.61V80.24h3.44V78.62h-3.44Zm237.69,0H439.2v3.43h-3.44v1.62h3.44v3.43h1.62V80.24h3.43V78.62h-3.43Zm-198.07,0h-1.62v3.43h-3.44v1.62h3.44v3.43h1.62V80.24h3.43V78.62h-3.43Zm-99,0h-1.62v3.43H138.7v1.62h3.43v3.43h1.62V80.24h3.44V78.62H143.7Zm277.3,0h-1.62v3.43H416v1.62h3.43v3.43H421V80.24h3.44V78.62H421ZM5.1,75.19H3.44v3.43H0v1.62H3.44v3.43H5.05V80.24H8.49V78.62H5.05Zm118.84,0h-1.61v3.43h-3.44v1.62h3.44v3.43h1.61V80.24h3.44V78.62h-3.44Zm99,0h-1.62v3.43h-3.43v1.62h3.43v3.43h1.62V80.24h3.44V78.62h-3.44Zm99,0h-1.61v3.43h-3.44v1.62h3.44v3.43H322V80.24h3.44V78.62H322Zm-39.61,0h-1.62v3.43H277.3v1.62h3.43v3.43h1.62V80.24h3.44V78.62h-3.44Zm79.23,0H360v3.43h-3.43v1.62H360v3.43h1.62V80.24H365V78.62h-3.43Zm-277.3,0h-1.6v3.43H79.23v1.62h3.43v3.43h1.62V80.24h3.44V78.62H84.28Zm-39.61,0h-1.6v3.43H39.61v1.62h3.44v3.43h1.62V80.24H48.1V78.62H44.67Zm19.8,0H62.86v3.43H59.42v1.62h3.44v3.43h1.61V80.24h3.44V78.62H64.47Zm277.3,0h-1.62v3.43H336.7v1.62h3.43v3.43h1.62V80.24h3.44V78.62h-3.44Zm-39.61,0h-1.62v3.43H297.1v1.62h3.44v3.43h1.62V80.24h3.43V78.62h-3.43Zm-118.84,0h-1.6v3.43h-3.44v1.62h3.44v3.43h1.62V80.24h3.43V78.62h-3.43Zm217.87,0h-1.61v3.43h-3.44v1.62h3.44v3.43h1.61V80.24h3.44V78.62h-3.44Zm-297.1,0h-1.62v3.43H99v1.62h3.44v3.43h1.62V80.24h3.43V78.62h-3.43Zm59.42,0h-1.62v3.43h-3.43v1.62h3.43v3.43h1.62V80.24h3.43V78.62h-3.43Zm99,0h-1.61v3.43h-3.44v1.62h3.44v3.43h1.61V80.24H266V78.62h-3.44Zm118.85,0h-1.62v3.43h-3.44v1.62h3.44v3.43h1.62V80.24h3.43V78.62h-3.43Zm-356.53,0H23.24v3.43H19.81v1.62h3.43v3.43h1.62V80.24H28.3V78.62H24.86Zm495.17,0h-1.61v3.43H515v1.62h3.44v3.43H520V80.24h3.44V78.62H520Zm59.43,0h-1.62v3.43H574.4v1.62h3.44v3.43h1.62V80.24h3.43V78.62h-3.43Zm-39.62,0h-1.62v3.43h-3.43v1.62h3.43v3.43h1.62V80.24h3.44V78.62h-3.44Zm59.42,0H597.6v3.43h-3.44v1.62h3.44v3.43h1.61V80.24h3.44V78.62h-3.44Zm99,0h-1.62v3.43h-3.44v1.62h3.44v3.43h1.62V80.24h3.43V78.62H698.3Zm19.8,0H716.4v3.43h-3.44v1.62h3.44v3.43h1.61V80.24h3.44V78.62H718.1Zm-217.87,0h-1.62v3.43h-3.44v1.62h3.44v3.43h1.62V80.24h3.43V78.62h-3.43Zm-19.81,0H478.8v3.43h-3.43v1.62h3.43v3.43h1.62V80.24h3.44V78.62h-3.44Zm-19.81,0H459v3.43h-3.44v1.62H459v3.43h1.61V80.24h3.44V78.62h-3.44Zm178.27,0h-1.62v3.43h-3.44v1.62h3.44v3.43h1.62V80.24h3.43V78.62h-3.43Zm19.8,0h-1.61v3.43h-3.44v1.62h3.44v3.43h1.61V80.24h3.44V78.62h-3.44Zm-39.61,0h-1.62v3.43H614v1.62h3.43v3.43h1.62V80.24h3.44V78.62h-3.44Zm-59.42,0H558v3.43h-3.4v1.62H558v3.43h1.62V80.24h3.43V78.62h-3.43Zm118.84,0h-1.62v3.43h-3.43v1.62h3.43v3.43h1.62V80.24h3.44V78.62H678.4ZM381.39,94h-1.62v3.44h-3.44V99h3.44v3.44h1.62V99h3.43V97.42h-3.43Zm-39.62,0h-1.62v3.44h-3.43V99h3.43v3.44h1.62V99h3.44V97.42h-3.44Zm-39.61,0h-1.62v3.44H297.1V99h3.44v3.44h1.62V99h3.43V97.42h-3.43ZM44.67,94H43.05v3.44H39.61V99h3.44v3.44h1.62V99H48.1V97.42H44.67Zm515,0H558v3.44h-3.4V99H558v3.44h1.62V99h3.43V97.42h-3.43Zm-79.23,0H478.8v3.44h-3.43V99h3.43v3.44h1.62V99h3.44V97.42h-3.44Zm198.07,0h-1.62v3.44h-3.43V99h3.43v3.44h1.62V99h3.44V97.42h-3.44ZM638.9,94h-1.62v3.44h-3.44V99h3.44v3.44h1.62V99h3.43V97.42H638.9Zm19.8,0h-1.61v3.44h-3.44V99h3.44v3.44h1.61V99h3.44V97.42H658.7ZM64.47,94H62.86v3.44H59.42V99h3.44v3.44h1.61V99h3.44V97.42H64.47Zm59.42,0h-1.61v3.44h-3.44V99h3.44v3.44h1.61V99h3.44V97.42h-3.44Zm39.62,0h-1.62v3.44h-3.43V99h3.43v3.44h1.62V99h3.43V97.42h-3.43Zm198.07,0H360v3.44h-3.43V99H360v3.44h1.62V99H365V97.42h-3.43Zm138.65,0h-1.62v3.44h-3.44V99h3.44v3.44h1.62V99h3.43V97.42h-3.43ZM143.7,94h-1.62v3.44h-3.43V99h3.43v3.44h1.62V99h3.44V97.42H143.7Zm138.65,0h-1.62v3.44H277.3V99h3.43v3.44h1.62V99h3.44V97.42h-3.44Zm257.49,0h-1.62v3.44h-3.43V99h3.43v3.44h1.62V99h3.44V97.42h-3.44Zm-277.3,0h-1.61v3.44h-3.44V99h3.44v3.44h1.61V99H266V97.42h-3.44ZM5.05,94H3.44v3.44H0V99H3.44v3.44H5.05V99H8.49V97.42H5.05ZM718.1,94h-1.61v3.44h-3.44V99h3.44v3.44h1.61V99h3.44V97.42H718.1ZM599.26,94h-1.61v3.44h-3.44V99h3.44v3.44h1.61V99h3.44V97.42h-3.44ZM421,94h-1.62v3.44H416V99h3.43v3.44H421V99h3.44V97.42H421Zm158.46,0h-1.62v3.44H574.4V99h3.44v3.44h1.62V99h3.43V97.42h-3.43ZM440.81,94h-1.62v3.44h-3.44V99h3.44v3.44h1.62V99h3.43V97.42h-3.43ZM322,94h-1.61v3.44h-3.44V99h3.44v3.44H322V99h3.44V97.42H322Zm-99,0h-1.62v3.44h-3.43V99h3.43v3.44H223V99h3.44V97.42H223Zm-19.81,0h-1.61v3.44h-3.44V99h3.44v3.44h1.61V99h3.44V97.42h-3.44ZM520,94h-1.61v3.44H515V99h3.44v3.44H520V99h3.44V97.42H520Zm178.3,0h-1.62v3.44h-3.44V99h3.44v3.44h1.62V99h3.43V97.42H698.3ZM104.09,94h-1.62v3.44H99V99h3.44v3.44h1.62V99h3.43V97.42h-3.43Zm297.1,0h-1.61v3.44h-3.44V99h3.44v3.44h1.61V99h3.44V97.42h-3.44ZM24.86,94H23.24v3.44H19.81V99h3.43v3.44h1.62V99H28.3V97.42H24.86Zm435.75,0H459v3.44h-3.44V99H459v3.44h1.61V99h3.44V97.42h-3.44ZM183.32,94H181.7v3.44h-3.44V99h3.44v3.44h1.62V99h3.43V97.42h-3.43Zm-99,0H82.66v3.44H79.23V99h3.43v3.44h1.62V99h3.44V97.42H84.28Zm158.46,0h-1.62v3.44h-3.44V99h3.44v3.44h1.62V99h3.43V97.42h-3.43Zm376.33,0h-1.62v3.44H614V99h3.43v3.44h1.62V99h3.44V97.42h-3.44Zm-99,18.8H518.5v3.43H515v1.62h3.44v3.44H520v-3.44h3.44v-1.62H520Zm-396.14,0h-1.61v3.43h-3.44v1.62h3.44v3.44h1.61v-3.44h3.44v-1.62h-3.44Zm198.07,0h-1.61v3.43h-3.44v1.62h3.44v3.44H322v-3.44h3.44v-1.62H322Zm336.72,0h-1.61v3.43h-3.44v1.62h3.44v3.44h1.61v-3.44h3.44v-1.62h-3.44Zm-99,0H558v3.43h-3.4v1.62H558v3.44h1.62v-3.44h3.43v-1.62h-3.43Zm-376.33,0H181.7v3.43h-3.44v1.62h3.44v3.44h1.62v-3.44h3.43v-1.62h-3.43Zm396.14,0h-1.62v3.43H574.4v1.62h3.44v3.44h1.62v-3.44h3.43v-1.62h-3.43Zm-336.72,0h-1.62v3.43h-3.44v1.62h3.44v3.44h1.62v-3.44h3.43v-1.62h-3.43Zm376.33,0h-1.62v3.43H614v1.62h3.43v3.44h1.62v-3.44h3.44v-1.62h-3.44Zm-316.91,0h-1.62v3.43H297.1v1.62h3.44v3.44h1.62v-3.44h3.43v-1.62h-3.43Zm297.1,0h-1.61v3.43h-3.44v1.62h3.44v3.44h1.61v-3.44h3.44v-1.62h-3.44Zm-396.14,0h-1.61v3.43h-3.44v1.62h3.44v3.44h1.61v-3.44h3.44v-1.62h-3.44Zm19.81,0h-1.62v3.43h-3.43v1.62h3.43v3.44h1.62v-3.44h3.44v-1.62h-3.44Zm59.42,0h-1.62v3.43H277.3v1.62h3.43v3.44h1.62v-3.44h3.44v-1.62h-3.44Zm257.49,0h-1.62v3.43H534.9v1.62h3.43v3.44h1.62v-3.44h3.44v-1.62h-3.44Zm99,0h-1.62v3.43h-3.44v1.62h3.44v3.44h1.62v-3.44h3.43v-1.62h-3.43Zm-534.79,0h-1.62v3.43H99v1.62h3.44v3.44h1.62v-3.44h3.43v-1.62h-3.43Zm39.61,0h-1.62v3.43h-3.43v1.62h3.43v3.44h1.62v-3.44h3.44v-1.62H143.7Zm19.81,0h-1.62v3.43h-3.43v1.62h3.43v3.44h1.62v-3.44h3.43v-1.62h-3.43Zm99,0h-1.61v3.43h-3.44v1.62h3.44v3.44h1.61v-3.44H266v-1.62h-3.44Zm237.69,0h-1.62v3.43h-3.44v1.62h3.44v3.44h1.62v-3.44h3.43v-1.62h-3.43Zm-79.23,0h-1.62v3.43H416v1.62h3.43v3.44H421v-3.44h3.44v-1.62H421Zm-19.81,0h-1.61v3.43h-3.44v1.62h3.44v3.44h1.61v-3.44h3.44v-1.62h-3.44Zm-356.52,0H43.05v3.43H39.61v1.62h3.44v3.44h1.62v-3.44H48.1v-1.62H44.67Zm415.94,0H459v3.43h-3.44v1.62H459v3.44h1.61v-3.44h3.44v-1.62h-3.44Zm-396.14,0H62.86v3.43H59.42v1.62h3.44v3.44h1.61v-3.44h3.44v-1.62H64.47Zm297.11,0H360v3.43h-3.43v1.62H360v3.44h1.62v-3.44H365v-1.62h-3.43Zm316.91,0h-1.62v3.43h-3.43v1.62h3.43v3.44h1.62v-3.44h3.44v-1.62h-3.44Zm39.61,0h-1.61v3.43h-3.44v1.62h3.44v3.44h1.61v-3.44h3.44v-1.62H718.1Zm-693.24,0H23.24v3.43H19.81v1.62h3.43v3.44h1.62v-3.44H28.3v-1.62H24.86Zm59.42,0H82.66v3.43H79.23v1.62h3.43v3.44h1.62v-3.44h3.44v-1.62H84.28Zm257.49,0h-1.62v3.43h-3.43v1.62h3.43v3.44h1.62v-3.44h3.44v-1.62h-3.44Zm99,0h-1.62v3.43h-3.44v1.62h3.44v3.44h1.62v-3.44h3.43v-1.62h-3.43Zm-435.76,0H3.44v3.43H0v1.62H3.44v3.44H5.05v-3.44H8.49v-1.62H5.05Zm475.37,0H478.8v3.43h-3.43v1.62h3.43v3.44h1.62v-3.44h3.44v-1.62h-3.44Zm217.88,0h-1.62v3.43h-3.44v1.62h3.44v3.44h1.62v-3.44h3.43v-1.62H698.3Zm-316.91,0h-1.62v3.43h-3.44v1.62h3.44v3.44h1.62v-3.44h3.43v-1.62h-3.43Zm178.26,18.8H558V135h-3.4v1.62H558v3.43h1.62v-3.43h3.43V135h-3.43Zm-79.23,0H478.8V135h-3.43v1.62h3.43v3.43h1.62v-3.43h3.44V135h-3.44Zm-435.75,0H43.05V135H39.61v1.62h3.44v3.43h1.62v-3.43H48.1V135H44.67Zm-19.81,0H23.24V135H19.81v1.62h3.43v3.43h1.62v-3.43H28.3V135H24.86Zm237.68,0h-1.61V135h-3.44v1.62h3.44v3.43h1.61v-3.43H266V135h-3.44Zm138.65,0h-1.61V135h-3.44v1.62h3.44v3.43h1.61v-3.43h3.44V135h-3.44Zm217.88,0h-1.62V135H614v1.62h3.43v3.43h1.62v-3.43h3.44V135h-3.44Zm-376.33,0h-1.62V135h-3.44v1.62h3.44v3.43h1.62v-3.43h3.43V135h-3.43Zm-237.69,0H3.44V135H0v1.62H3.44v3.43H5.05v-3.43H8.49V135H5.05Zm198.07,0h-1.61V135h-3.44v1.62h3.44v3.43h1.61v-3.43h3.44V135h-3.44Zm237.69,0h-1.62V135h-3.44v1.62h3.44v3.43h1.62v-3.43h3.43V135h-3.43Zm158.45,0h-1.61V135h-3.44v1.62h3.44v3.43h1.61v-3.43h3.44V135h-3.44Zm-376.33,0h-1.62V135h-3.43v1.62h3.43v3.43h1.62v-3.43h3.44V135h-3.44Zm495.17,0h-1.61V135h-3.44v1.62h3.44v3.43h1.61v-3.43h3.44V135H718.1Zm-534.78,0H181.7V135h-3.44v1.62h3.44v3.43h1.62v-3.43h3.43V135h-3.43Zm237.68,0h-1.62V135H416v1.62h3.43v3.43H421v-3.43h3.44V135H421Zm39.61,0H459V135h-3.44v1.62H459v3.43h1.61v-3.43h3.44V135h-3.44Zm118.85,0h-1.62V135H574.4v1.62h3.44v3.43h1.62v-3.43h3.43V135h-3.43Zm-297.11,0h-1.62V135H277.3v1.62h3.43v3.43h1.62v-3.43h3.44V135h-3.44Zm-217.88,0H62.86V135H59.42v1.62h3.44v3.43h1.61v-3.43h3.44V135H64.47Zm99,0h-1.62V135h-3.43v1.62h3.43v3.43h1.62v-3.43h3.43V135h-3.43Zm-79.23,0H82.66V135H79.23v1.62h3.43v3.43h1.62v-3.43h3.44V135H84.28Zm574.4,0h-1.61V135h-3.44v1.62h3.44v3.43h1.61v-3.43h3.44V135h-3.44Zm-158.45,0h-1.62V135h-3.44v1.62h3.44v3.43h1.62v-3.43h3.43V135h-3.43Zm39.61,0h-1.62V135h-3.43v1.62h3.43v3.43h1.62v-3.43h3.44V135H539.8Zm-217.88,0h-1.61V135h-3.44v1.62h3.44v3.43H322v-3.43h3.44V135H322Zm356.53,0h-1.62V135H673.4v1.62h3.43v3.43h1.62v-3.43h3.44V135h-3.44Zm-316.91,0H360V135h-3.43v1.62H360v3.43h1.62v-3.43H365V135h-3.43Zm-59.42,0H300.5V135h-3.4v1.62h3.44v3.43h1.62v-3.43h3.43V135h-3.43Zm336.72,0h-1.62V135h-3.44v1.62h3.44v3.43h1.62v-3.43h3.43V135h-3.43Zm-257.49,0h-1.62V135h-3.44v1.62h3.44v3.43h1.62v-3.43h3.43V135h-3.43Zm-257.5,0h-1.61V135H118.8v1.62h3.44v3.43h1.61v-3.43h3.44V135h-3.44Zm-19.8,0h-1.62V135H99v1.62h3.44v3.43h1.62v-3.43h3.43V135h-3.43Zm415.94,0h-1.61V135H515v1.62h3.44v3.43H520v-3.43h3.44V135H520Zm178.27,0h-1.62V135H693.2v1.62h3.44v3.43h1.62v-3.43h3.43V135H698.3Zm-356.53,0h-1.62V135h-3.43v1.62h3.43v3.43h1.62v-3.43h3.44V135h-3.44Zm-198.07,0h-1.62V135h-3.43v1.62h3.43v3.43h1.62v-3.43h3.44V135h-3.4Zm534.79,18.79h-1.62v3.44H673.4v1.61h3.43v3.44h1.62v-3.44h3.44v-1.61h-3.44Zm-554.6,0h-1.61v3.44H118.8v1.61h3.44v3.44h1.61v-3.44h3.44v-1.61h-3.44Zm79.23,0h-1.61v3.44h-3.44v1.61h3.44v3.44h1.61v-3.44h3.44v-1.61h-3.44Zm-99,0h-1.62v3.44H99v1.61h3.44v3.44h1.62v-3.44h3.43v-1.61h-3.43Zm-99,0H3.44v3.44H0v1.61H3.44v3.44H5.05v-3.44H8.49v-1.61H5.05Zm653.63,0H657.1v3.44h-3.44v1.61h3.44v3.44h1.61v-3.44h3.44v-1.61h-3.44Zm-633.82,0H23.24v3.44H19.81v1.61h3.43v3.44h1.62v-3.44H28.3v-1.61H24.86Zm59.42,0H82.66v3.44H79.23v1.61h3.43v3.44h1.62v-3.44h3.44v-1.61H84.28Zm515,0H597.7v3.44h-3.44v1.61h3.44v3.44h1.61v-3.44h3.44v-1.61h-3.44Zm39.62,0h-1.62v3.44h-3.44v1.61h3.44v3.44h1.62v-3.44h3.43v-1.61h-3.43Zm59.42,0h-1.62v3.44h-3.44v1.61h3.44v3.44h1.62v-3.44h3.43v-1.61H698.3Zm-534.79,0h-1.62v3.44h-3.43v1.61h3.43v3.44h1.62v-3.44h3.43v-1.61h-3.43Zm-118.84,0H43.05v3.44H39.61v1.61h3.44v3.44h1.62v-3.44H48.1v-1.61H44.67Zm673.43,0h-1.61v3.44H713.1v1.61h3.44v3.44h1.61v-3.44h3.44v-1.61H718.1Zm-534.78,0H181.7v3.44h-3.44v1.61h3.44v3.44h1.62v-3.44h3.43v-1.61h-3.43Zm-118.85,0H62.86v3.44H59.42v1.61h3.44v3.44h1.61v-3.44h3.44v-1.61H64.47Zm79.23,0h-1.62v3.44H138.7v1.61h3.43v3.44h1.62v-3.44h3.44v-1.61H143.7Zm475.37,0H617.5v3.44H614v1.61h3.43v3.44h1.62v-3.44h3.44v-1.61h-3.44Zm-217.88,0h-1.61v3.44h-3.44v1.61h3.44v3.44h1.61v-3.44h3.44v-1.61h-3.44Zm138.65,0h-1.62v3.44h-3.43v1.61h3.43v3.44h1.62v-3.44h3.44v-1.61h-3.44Zm-237.68,0h-1.62v3.44H297.1v1.61h3.44v3.44h1.62v-3.44h3.43v-1.61h-3.43Zm39.61,0H340.2v3.44h-3.43v1.61h3.43v3.44h1.62v-3.44h3.44v-1.61h-3.44Zm178.26,0h-1.61v3.44H515v1.61h3.44v3.44H520v-3.44h3.44v-1.61H520Zm-198.07,0H320.4v3.44h-3.44v1.61h3.44v3.44H322v-3.44h3.44v-1.61H322Zm257.5,0h-1.62v3.44H574.4v1.61h3.44v3.44h1.62v-3.44h3.43v-1.61h-3.43Zm-19.81,0H558v3.44h-3.4v1.61H558v3.44h1.62v-3.44h3.43v-1.61h-3.43Zm-277.3,0h-1.62v3.44H277.3v1.61h3.43v3.44h1.62v-3.44h3.44v-1.61h-3.44Zm178.26,0H459v3.44h-3.44v1.61H459v3.44h1.61v-3.44h3.44v-1.61h-3.44Zm-217.87,0h-1.62v3.44h-3.44v1.61h3.44v3.44h1.62v-3.44h3.43v-1.61h-3.43Zm198.07,0h-1.62v3.44H435.8v1.61h3.44v3.44h1.62v-3.44h3.43v-1.61h-3.43Zm-19.81,0h-1.62v3.44H416v1.61h3.43v3.44H421v-3.44h3.44v-1.61H421Zm-39.61,0h-1.62v3.44h-3.44v1.61h3.44v3.44h1.62v-3.44h3.43v-1.61h-3.43Zm99,0H478.8v3.44h-3.43v1.61h3.43v3.44h1.62v-3.44h3.44v-1.61h-3.44Zm19.81,0h-1.62v3.44h-3.44v1.61h3.44v3.44h1.62v-3.44h3.43v-1.61h-3.43Zm-138.65,0H360v3.44h-3.43v1.61H360v3.44h1.62v-3.44H365v-1.61h-3.43Zm-99,0h-1.61v3.44h-3.44v1.61h3.44v3.44h1.61v-3.44H266v-1.61h-3.44Zm-39.61,0h-1.62v3.44h-3.43v1.61h3.43v3.44h1.62v-3.44h3.44v-1.61h-3.44Zm158.46,18.8h-1.62v3.43h-3.44v1.62h3.44v3.44h1.62v-3.44h3.43V172.6h-3.43Zm-158.46,0h-1.62v3.43h-3.43v1.62h3.43v3.44h1.62v-3.44h3.44V172.6h-3.44Zm-99,0h-1.61v3.43h-3.44v1.62h3.44v3.44h1.61v-3.44h3.44V172.6h-3.44Zm416,0h-1.62v3.43h-3.43v1.62h3.43v3.44h1.62v-3.44h3.44V172.6h-3.44Zm158.46,0h-1.62v3.43h-3.44v1.62h3.44v3.44h1.62v-3.44h3.43V172.6H698.3Zm-396.14,0h-1.62v3.43H297.1v1.62h3.44v3.44h1.62v-3.44h3.43V172.6h-3.43Zm178.26,0H478.8v3.43h-3.43v1.62h3.43v3.44h1.62v-3.44h3.44V172.6h-3.44Zm-336.72,0h-1.62v3.43H138.8v1.62h3.43v3.44h1.62v-3.44h3.44V172.6H143.7Zm257.49,0h-1.61v3.43h-3.44v1.62h3.44v3.44h1.61v-3.44h3.44V172.6h-3.44Zm-356.52,0H43.05v3.43H39.61v1.62h3.44v3.44h1.62v-3.44H48.1V172.6H44.67Zm277.29,0H320.5v3.43h-3.44v1.62h3.44v3.44H322v-3.44h3.44V172.6H322Zm-217.87,0h-1.62v3.43H99v1.62h3.44v3.44h1.62v-3.44h3.43V172.6h-3.43Zm257.49,0H360v3.43h-3.43v1.62H360v3.44h1.62v-3.44H365V172.6h-3.43Zm-118.84,0h-1.62v3.43h-3.44v1.62h3.44v3.44h1.62v-3.44h3.43V172.6h-3.43Zm415.94,0h-1.61v3.43h-3.44v1.62h3.44v3.44h1.61v-3.44h3.44V172.6h-3.44Zm19.81,0h-1.62v3.43h-3.43v1.62h3.43v3.44h1.62v-3.44h3.44V172.6h-3.44Zm-594.21,0H82.66v3.43H79.23v1.62h3.43v3.44h1.62v-3.44h3.44V172.6H84.28Zm-19.81,0H62.86v3.43H59.42v1.62h3.44v3.44h1.61v-3.44h3.44V172.6H64.47Zm653.63,0h-1.61v3.43H713.2v1.62h3.44v3.44h1.61v-3.44h3.44V172.6H718.1Zm-217.87,0h-1.62v3.43h-3.44v1.62h3.44v3.44h1.62v-3.44h3.43V172.6h-3.43Zm19.8,0h-1.61v3.43H515v1.62h3.44v3.44H520v-3.44h3.44V172.6H520Zm-316.91,0h-1.61v3.43h-3.44v1.62h3.44v3.44h1.61v-3.44h3.44V172.6h-3.44Zm-178.26,0H23.24v3.43H19.81v1.62h3.43v3.44h1.62v-3.44H28.3V172.6H24.86Zm534.79,0H558v3.43h-3.4v1.62H558v3.44h1.62v-3.44h3.43V172.6h-3.43Zm-217.88,0H340.3v3.43h-3.43v1.62h3.43v3.44h1.62v-3.44h3.44V172.6h-3.44Zm79.23,0h-1.62v3.43H416v1.62h3.43v3.44H421v-3.44h3.44V172.6H421Zm-415.95,0H3.44v3.43H0v1.62H3.44v3.44H5.05v-3.44H8.49V172.6H5.05Zm158.46,0h-1.62v3.43h-3.43v1.62h3.43v3.44h1.62v-3.44h3.43V172.6h-3.43Zm416,0h-1.62v3.43H574.4v1.62h3.44v3.44h1.62v-3.44h3.43V172.6h-3.43Zm19.8,0h-1.61v3.43h-3.44v1.62h3.44v3.44h1.61v-3.44h3.44V172.6h-3.44Zm-158.45,0h-1.62v3.43h-3.44v1.62h3.44v3.44h1.62v-3.44h3.43V172.6h-3.43Zm-257.49,0H181.7v3.43h-3.44v1.62h3.44v3.44h1.62v-3.44h3.43V172.6h-3.43Zm99,0H280.9v3.43h-3.6v1.62h3.43v3.44h1.62v-3.44h3.44V172.6h-3.44Zm336.72,0h-1.62v3.43H614v1.62h3.43v3.44h1.62v-3.44h3.44V172.6h-3.44Zm19.81,0h-1.62v3.43h-3.44v1.62h3.44v3.44h1.62v-3.44h3.43V172.6h-3.43Zm-178.27,0H459v3.43h-3.44v1.62H459v3.44h1.61v-3.44h3.44V172.6h-3.44Zm-198.07,0H261.1v3.43h-3.44v1.62h3.44v3.44h1.61v-3.44H266V172.6h-3.44ZM718.1,188h-1.61v3.44h-3.44V193h3.44v3.43h1.61V193h3.44v-1.6H718.1Zm-277.29,0h-1.62v3.44h-3.44V193h3.44v3.43h1.62V193h3.43v-1.6h-3.43ZM5.05,188H3.44v3.44H0V193H3.44v3.43H5.05V193H8.49v-1.6H5.05Zm594.21,0h-1.61v3.44h-3.44V193h3.44v3.43h1.61V193h3.44v-1.6h-3.44ZM520,188h-1.61v3.44H515V193h3.44v3.43H520V193h3.44v-1.6H520ZM84.28,188H82.66v3.44H79.23V193h3.43v3.43h1.62V193h3.44v-1.6H84.28Zm277.3,0H360v3.44h-3.43V193H360v3.43h1.62V193H365v-1.6h-3.43Zm99,0H459v3.44h-3.44V193H459v3.43h1.61V193h3.44v-1.6h-3.44Zm-59.42,0h-1.61v3.44h-3.44V193h3.44v3.43h1.61V193h3.44v-1.6h-3.44Zm-376.3,0H23.24v3.44H19.81V193h3.43v3.43h1.62V193H28.3v-1.6H24.86ZM421,188h-1.62v3.44H416V193h3.43v3.43H421V193h3.44v-1.6H421ZM44.67,188H43.05v3.44H39.61V193h3.44v3.43h1.62V193H48.1v-1.6H44.67Zm435.75,0H478.8v3.44h-3.43V193h3.43v3.43h1.62V193h3.44v-1.6h-3.44ZM64.47,188H62.86v3.44H59.42V193h3.44v3.43h1.61V193h3.44v-1.6H64.47Zm158.46,0h-1.62v3.44h-3.43V193h3.43v3.43h1.62V193h3.44v-1.6h-3.44Zm277.3,0h-1.62v3.44h-3.44V193h3.44v3.43h1.62V193h3.43v-1.6h-3.43Zm198.07,0h-1.62v3.44h-3.44V193h3.44v3.43h1.62V193h3.43v-1.6H698.3Zm-316.91,0h-1.62v3.44h-3.44V193h3.44v3.43h1.62V193h3.43v-1.6h-3.43Zm-178.27,0h-1.61v3.44h-3.44V193h3.44v3.43h1.61V193h3.44v-1.6h-3.44Zm-39.61,0h-1.62v3.44h-3.43V193h3.43v3.43h1.62V193h3.43v-1.6h-3.43Zm79.23,0h-1.62v3.44h-3.44V193h3.44v3.43h1.62V193h3.43v-1.6h-3.43ZM322,188h-1.61v3.44h-3.44V193h3.44v3.43H322V193h3.44v-1.6H322Zm-59.42,0h-1.61v3.44h-3.44V193h3.44v3.43h1.61V193H266v-1.6h-3.44Zm-138.65,0h-1.61v3.44h-3.44V193h3.44v3.43h1.61V193h3.44v-1.6h-3.44Zm534.79,0h-1.61v3.44h-3.44V193h3.44v3.43h1.61V193h3.44v-1.6h-3.44Zm-118.84,0h-1.62v3.44h-3.43V193h3.43v3.43h1.62V193h3.44v-1.6h-3.44ZM302.2,188h-1.62v3.44H297.1V193h3.44v3.43h1.62V193h3.43v-1.6h-3.43Zm316.91,0h-1.62v3.44H614V193h3.43v3.43h1.62V193h3.44v-1.6h-3.44Zm19.81,0H637.3v3.44h-3.44V193h3.44v3.43h1.62V193h3.43v-1.6h-3.43Zm-297.11,0h-1.62v3.44h-3.43V193h3.43v3.43h1.62V193h3.44v-1.6h-3.44Zm336.72,0h-1.62v3.44h-3.43V193h3.43v3.43h1.62V193h3.44v-1.6h-3.44ZM143.7,188h-1.62v3.44h-3.43V193h3.43v3.43h1.62V193h3.44v-1.6H143.7Zm39.62,0H181.7v3.44h-3.44V193h3.44v3.43h1.62V193h3.43v-1.6h-3.43Zm99,0H280.7v3.44h-3.4V193h3.43v3.43h1.62V193h3.44v-1.6h-3.44Zm297.11,0h-1.62v3.44H574.4V193h3.44v3.43h1.62V193h3.43v-1.6h-3.43Zm-19.81,0H558v3.44h-3.4V193H558v3.43h1.62V193h3.43v-1.6h-3.43Zm-455.56,0h-1.62v3.44H99V193h3.44v3.43h1.62V193h3.43v-1.6h-3.43Zm178.26,18.8H280.7v3.44h-3.4v1.61h3.43v3.44h1.62v-3.44h3.44V210.2h-3.44Zm435.75,0h-1.61v3.44h-3.44v1.61h3.44v3.44h1.61v-3.44h3.44V210.2H718.1Zm-297.1,0h-1.62v3.44H416v1.61h3.43v3.44H421v-3.44h3.44V210.2H421Zm59.42,0H478.8v3.44h-3.43v1.61h3.43v3.44h1.62v-3.44h3.44V210.2h-3.44Zm79.23,0H558v3.44h-3.4v1.61H558v3.44h1.62v-3.44h3.43V210.2h-3.43Zm-297.11,0H260.9v3.44h-3.44v1.61h3.44v3.44h1.61v-3.44H266V210.2h-3.44Zm-79.22,0H181.7v3.44h-3.44v1.61h3.44v3.44h1.62v-3.44h3.43V210.2h-3.43Zm396.14,0h-1.62v3.44H574.4v1.61h3.44v3.44h1.62v-3.44h3.43V210.2h-3.43Zm59.42,0h-1.62v3.44h-3.44v1.61h3.44v3.44h1.62v-3.44h3.43V210.2h-3.43Zm-633.83,0H3.44v3.44H0v1.61H3.44v3.44H5.05v-3.44H8.49V210.2H5.05Zm158.46,0h-1.62v3.44h-3.43v1.61h3.43v3.44h1.62v-3.44h3.43V210.2h-3.43Zm-138.65,0H23.24v3.44H19.81v1.61h3.43v3.44h1.62v-3.44H28.3V210.2H24.86Zm198.07,0h-1.62v3.44h-3.43v1.61h3.43v3.44h1.62v-3.44h3.44V210.2H222.9Zm217.88,0h-1.62v3.44h-3.44v1.61h3.44v3.44h1.62v-3.44h3.43V210.2h-3.43Zm-99,0h-1.62v3.44h-3.43v1.61h3.43v3.44h1.62v-3.44h3.44V210.2h-3.44Zm257.49,0h-1.61v3.44h-3.44v1.61h3.44v3.44h1.61v-3.44h3.44V210.2h-3.44Zm99,0h-1.62v3.44h-3.44v1.61h3.44v3.44h1.62v-3.44h3.43V210.2h-3.4Zm-316.91,0h-1.62v3.44H376.3v1.61h3.44v3.44h1.62v-3.44h3.43V210.2h-3.43Zm-178.27,0h-1.61v3.44h-3.44v1.61h3.44v3.44h1.61v-3.44h3.44V210.2h-3.44Zm39.62,0h-1.62v3.44h-3.44v1.61h3.44v3.44h1.62v-3.44h3.43V210.2h-3.43Zm257.49,0h-1.62v3.44h-3.44v1.61h3.44v3.44h1.62v-3.44h3.43V210.2H500.2Zm19.8,0h-1.61v3.44H515v1.61h3.44v3.44H520v-3.44h3.44V210.2H520Zm-415.94,0h-1.62v3.44H99v1.61h3.44v3.44h1.62v-3.44h3.43V210.2h-3.43Zm257.49,0H360v3.44h-3.43v1.61H360v3.44h1.62v-3.44H365V210.2h-3.43Zm316.91,0h-1.62v3.44h-3.43v1.61h3.43v3.44h1.62v-3.44h3.44V210.2h-3.44Zm-594.21,0H82.66v3.44H79.23v1.61h3.43v3.44h1.62v-3.44h3.44V210.2H84.28Zm-39.61,0H43.05v3.44H39.61v1.61h3.44v3.44h1.62v-3.44H48.1V210.2H44.67Zm277.29,0h-1.61v3.44h-3.44v1.61h3.44v3.44H322v-3.44h3.44V210.2H322Zm336.72,0h-1.61v3.44H653.6v1.61h3.44v3.44h1.61v-3.44h3.44V210.2h-3.44Zm-515,0h-1.62v3.44H138.6v1.61h3.43v3.44h1.62v-3.44h3.44V210.2H143.7Zm257.49,0h-1.61v3.44h-3.44v1.61h3.44v3.44h1.61v-3.44h3.44V210.2h-3.44Zm59.42,0H459v3.44h-3.44v1.61H459v3.44h1.61v-3.44h3.44V210.2h-3.44Zm-158.45,0h-1.62v3.44H297.1v1.61h3.44v3.44h1.62v-3.44h3.43V210.2h-3.43Zm-237.69,0H62.86v3.44H59.42v1.61h3.44v3.44h1.61v-3.44h3.44V210.2H64.47Zm475.37,0h-1.62v3.44h-3.43v1.61h3.43v3.44h1.62v-3.44h3.44V210.2h-3.44Zm-415.95,0h-1.61v3.44h-3.44v1.61h3.44v3.44h1.61v-3.44h3.44V210.2h-3.44Zm495.18,0H617.4v3.44H614v1.61h3.43v3.44h1.62v-3.44h3.44V210.2h-3.44Z"/>
</svg>
