<svg xmlns="http://www.w3.org/2000/svg" width="147.487" height="15.484" viewBox="0 0 147.487 15.484">
  <defs>
    <style>
      .cls-1 {
        fill: #a7ff83;
      }
    </style>
  </defs>
  <path id="Path_3" data-name="Path 3" class="cls-1" d="M1063.924,1603.067c-4.345,0-6.389-3.719-8.031-6.706-1.531-2.785-2.582-4.477-4.262-4.477s-2.73,1.691-4.261,4.477c-1.642,2.988-3.686,6.706-8.031,6.706s-6.389-3.719-8.03-6.706c-1.531-2.786-2.582-4.477-4.261-4.477s-2.73,1.691-4.261,4.477c-1.642,2.988-3.685,6.706-8.03,6.706s-6.388-3.719-8.03-6.706c-1.531-2.786-2.581-4.477-4.26-4.477s-2.73,1.691-4.26,4.477c-1.642,2.988-3.685,6.706-8.029,6.706s-6.388-3.719-8.029-6.706c-1.53-2.786-2.581-4.477-4.26-4.477s-2.729,1.691-4.259,4.477c-1.642,2.988-3.684,6.706-8.029,6.706s-6.388-3.719-8.03-6.706c-1.531-2.786-2.581-4.477-4.26-4.477s-2.73,1.691-4.26,4.477c-1.642,2.988-3.685,6.706-8.03,6.706s-6.388-3.719-8.03-6.706c-1.53-2.786-2.581-4.477-4.26-4.477v-4.3c4.345,0,6.388,3.719,8.03,6.706,1.531,2.786,2.581,4.477,4.26,4.477s2.73-1.691,4.26-4.477c1.642-2.988,3.685-6.706,8.03-6.706s6.388,3.719,8.03,6.706c1.531,2.786,2.581,4.477,4.26,4.477s2.729-1.691,4.259-4.476c1.642-2.988,3.685-6.707,8.029-6.707s6.388,3.719,8.03,6.706c1.53,2.786,2.581,4.477,4.259,4.477s2.729-1.691,4.26-4.477c1.642-2.988,3.685-6.706,8.03-6.706s6.388,3.719,8.03,6.706c1.531,2.785,2.581,4.477,4.261,4.477s2.73-1.691,4.261-4.477c1.642-2.988,3.685-6.706,8.03-6.706s6.388,3.719,8.03,6.706c1.531,2.786,2.581,4.477,4.261,4.477s2.73-1.691,4.261-4.477c1.642-2.988,3.685-6.706,8.03-6.706s6.389,3.719,8.031,6.706c1.531,2.785,2.582,4.477,4.262,4.477s2.731-1.691,4.262-4.477c1.642-2.988,3.686-6.706,8.031-6.706v4.3c-1.68,0-2.731,1.691-4.262,4.477C1070.313,1599.349,1068.269,1603.067,1063.924,1603.067Z" transform="translate(-928.73 -1587.583)"/>
</svg>
